<mxfile host="65bd71144e">
    <diagram id="IKre2C1BjyY-xeML4A0U" name="Страница 1">
        <mxGraphModel dx="820" dy="498" grid="1" gridSize="10" guides="1" tooltips="1" connect="1" arrows="1" fold="1" page="1" pageScale="1" pageWidth="827" pageHeight="1169" math="0" shadow="0">
            <root>
                <mxCell id="0"/>
                <mxCell id="1" parent="0"/>
                <mxCell id="2" value="START" style="ellipse;whiteSpace=wrap;html=1;fillColor=#a20025;fontColor=#ffffff;strokeColor=#6F0000;" vertex="1" parent="1">
                    <mxGeometry x="310" y="10" width="80" height="80" as="geometry"/>
                </mxCell>
                <mxCell id="3" value="FINISH" style="ellipse;whiteSpace=wrap;html=1;fillColor=#60a917;fontColor=#ffffff;strokeColor=#2D7600;" vertex="1" parent="1">
                    <mxGeometry x="580" y="480" width="80" height="80" as="geometry"/>
                </mxCell>
                <mxCell id="4" value="" style="endArrow=classic;html=1;" edge="1" parent="1">
                    <mxGeometry width="50" height="50" relative="1" as="geometry">
                        <mxPoint x="349.5" y="90" as="sourcePoint"/>
                        <mxPoint x="349.5" y="150" as="targetPoint"/>
                    </mxGeometry>
                </mxCell>
                <mxCell id="5" value="&lt;span class=&quot;pl-en&quot; style=&quot;box-sizing: border-box ; font-size: 12px ; font-style: normal ; font-weight: 400 ; letter-spacing: normal ; text-indent: 0px ; text-transform: none ; word-spacing: 0px ; background-color: rgb(34 , 39 , 46)&quot;&gt;WordArray&lt;/span&gt;&lt;span style=&quot;color: rgb(173 , 186 , 199) ; font-size: 12px ; font-style: normal ; font-weight: 400 ; letter-spacing: normal ; text-indent: 0px ; text-transform: none ; word-spacing: 0px ; background-color: rgb(34 , 39 , 46) ; display: inline ; float: none&quot;&gt; &lt;/span&gt;&lt;span class=&quot;pl-k&quot; style=&quot;box-sizing: border-box ; font-size: 12px ; font-style: normal ; font-weight: 400 ; letter-spacing: normal ; text-indent: 0px ; text-transform: none ; word-spacing: 0px ; background-color: rgb(34 , 39 , 46)&quot;&gt;=&lt;/span&gt;&lt;span style=&quot;color: rgb(173 , 186 , 199) ; font-size: 12px ; font-style: normal ; font-weight: 400 ; letter-spacing: normal ; text-indent: 0px ; text-transform: none ; word-spacing: 0px ; background-color: rgb(34 , 39 , 46) ; display: inline ; float: none&quot;&gt;{&lt;/span&gt;&lt;span class=&quot;pl-s&quot; style=&quot;box-sizing: border-box ; font-size: 12px ; font-style: normal ; font-weight: 400 ; letter-spacing: normal ; text-indent: 0px ; text-transform: none ; word-spacing: 0px ; background-color: rgb(34 , 39 , 46)&quot;&gt;&lt;span class=&quot;pl-pds&quot; style=&quot;box-sizing: border-box&quot;&gt;&quot;&lt;/span&gt;first&lt;span class=&quot;pl-pds&quot; style=&quot;box-sizing: border-box&quot;&gt;&quot;&lt;/span&gt;&lt;/span&gt;&lt;span style=&quot;color: rgb(173 , 186 , 199) ; font-size: 12px ; font-style: normal ; font-weight: 400 ; letter-spacing: normal ; text-indent: 0px ; text-transform: none ; word-spacing: 0px ; background-color: rgb(34 , 39 , 46) ; display: inline ; float: none&quot;&gt;,&lt;/span&gt;&lt;span class=&quot;pl-s&quot; style=&quot;box-sizing: border-box ; font-size: 12px ; font-style: normal ; font-weight: 400 ; letter-spacing: normal ; text-indent: 0px ; text-transform: none ; word-spacing: 0px ; background-color: rgb(34 , 39 , 46)&quot;&gt;&lt;span class=&quot;pl-pds&quot; style=&quot;box-sizing: border-box&quot;&gt;&quot;&lt;/span&gt;two&lt;span class=&quot;pl-pds&quot; style=&quot;box-sizing: border-box&quot;&gt;&quot;&lt;/span&gt;&lt;/span&gt;&lt;span style=&quot;color: rgb(173 , 186 , 199) ; font-size: 12px ; font-style: normal ; font-weight: 400 ; letter-spacing: normal ; text-indent: 0px ; text-transform: none ; word-spacing: 0px ; background-color: rgb(34 , 39 , 46) ; display: inline ; float: none&quot;&gt;,&lt;/span&gt;&lt;span class=&quot;pl-s&quot; style=&quot;box-sizing: border-box ; font-size: 12px ; font-style: normal ; font-weight: 400 ; letter-spacing: normal ; text-indent: 0px ; text-transform: none ; word-spacing: 0px ; background-color: rgb(34 , 39 , 46)&quot;&gt;&lt;span class=&quot;pl-pds&quot; style=&quot;box-sizing: border-box&quot;&gt;&quot;&lt;/span&gt;second&lt;span class=&quot;pl-pds&quot; style=&quot;box-sizing: border-box&quot;&gt;&quot;&lt;/span&gt;&lt;/span&gt;&lt;span style=&quot;color: rgb(173 , 186 , 199) ; font-size: 12px ; font-style: normal ; font-weight: 400 ; letter-spacing: normal ; text-indent: 0px ; text-transform: none ; word-spacing: 0px ; background-color: rgb(34 , 39 , 46) ; display: inline ; float: none&quot;&gt;,&lt;br&gt;&lt;/span&gt;&lt;span class=&quot;pl-s&quot; style=&quot;box-sizing: border-box ; font-size: 12px ; font-style: normal ; font-weight: 400 ; letter-spacing: normal ; text-indent: 0px ; text-transform: none ; word-spacing: 0px ; background-color: rgb(34 , 39 , 46)&quot;&gt;&lt;span class=&quot;pl-pds&quot; style=&quot;box-sizing: border-box&quot;&gt;&quot;&lt;/span&gt;one&lt;span class=&quot;pl-pds&quot; style=&quot;box-sizing: border-box&quot;&gt;&quot;&lt;/span&gt;&lt;/span&gt;&lt;span style=&quot;color: rgb(173 , 186 , 199) ; font-size: 12px ; font-style: normal ; font-weight: 400 ; letter-spacing: normal ; text-indent: 0px ; text-transform: none ; word-spacing: 0px ; background-color: rgb(34 , 39 , 46) ; display: inline ; float: none&quot;&gt;,&lt;/span&gt;&lt;span class=&quot;pl-s&quot; style=&quot;box-sizing: border-box ; font-size: 12px ; font-style: normal ; font-weight: 400 ; letter-spacing: normal ; text-indent: 0px ; text-transform: none ; word-spacing: 0px ; background-color: rgb(34 , 39 , 46)&quot;&gt;&lt;span class=&quot;pl-pds&quot; style=&quot;box-sizing: border-box&quot;&gt;&quot;&lt;/span&gt;five&lt;span class=&quot;pl-pds&quot; style=&quot;box-sizing: border-box&quot;&gt;&quot;&lt;/span&gt;&lt;/span&gt;&lt;span style=&quot;color: rgb(173 , 186 , 199) ; font-size: 12px ; font-style: normal ; font-weight: 400 ; letter-spacing: normal ; text-indent: 0px ; text-transform: none ; word-spacing: 0px ; background-color: rgb(34 , 39 , 46) ; display: inline ; float: none&quot;&gt;,&lt;/span&gt;&lt;span class=&quot;pl-s&quot; style=&quot;box-sizing: border-box ; font-size: 12px ; font-style: normal ; font-weight: 400 ; letter-spacing: normal ; text-indent: 0px ; text-transform: none ; word-spacing: 0px ; background-color: rgb(34 , 39 , 46)&quot;&gt;&lt;span class=&quot;pl-pds&quot; style=&quot;box-sizing: border-box&quot;&gt;&quot;&lt;/span&gt;ten&lt;span class=&quot;pl-pds&quot; style=&quot;box-sizing: border-box&quot;&gt;&quot;&lt;/span&gt;&lt;/span&gt;&lt;span style=&quot;color: rgb(173 , 186 , 199) ; font-size: 12px ; font-style: normal ; font-weight: 400 ; letter-spacing: normal ; text-indent: 0px ; text-transform: none ; word-spacing: 0px ; background-color: rgb(34 , 39 , 46) ; display: inline ; float: none&quot;&gt;};&lt;/span&gt;" style="shape=parallelogram;perimeter=parallelogramPerimeter;whiteSpace=wrap;html=1;fixedSize=1;" vertex="1" parent="1">
                    <mxGeometry x="265" y="150" width="170" height="90" as="geometry"/>
                </mxCell>
                <mxCell id="6" value="" style="endArrow=classic;html=1;" edge="1" parent="1" target="7">
                    <mxGeometry width="50" height="50" relative="1" as="geometry">
                        <mxPoint x="350" y="240" as="sourcePoint"/>
                        <mxPoint x="349.5" y="320" as="targetPoint"/>
                    </mxGeometry>
                </mxCell>
                <mxCell id="7" value="&lt;span class=&quot;pl-k&quot; style=&quot;box-sizing: border-box ; font-family: , , &amp;#34;sf mono&amp;#34; , &amp;#34;menlo&amp;#34; , &amp;#34;consolas&amp;#34; , &amp;#34;liberation mono&amp;#34; , monospace ; background-color: rgb(34 , 39 , 46)&quot;&gt;if&lt;/span&gt;&lt;span style=&quot;color: rgb(173 , 186 , 199) ; font-family: , , &amp;#34;sf mono&amp;#34; , &amp;#34;menlo&amp;#34; , &amp;#34;consolas&amp;#34; , &amp;#34;liberation mono&amp;#34; , monospace ; background-color: rgb(34 , 39 , 46)&quot;&gt; &lt;/span&gt;&lt;span class=&quot;pl-smi&quot; style=&quot;box-sizing: border-box ; color: rgb(173 , 186 , 199) ; font-family: , , &amp;#34;sf mono&amp;#34; , &amp;#34;menlo&amp;#34; , &amp;#34;consolas&amp;#34; , &amp;#34;liberation mono&amp;#34; , monospace ; background-color: rgb(34 , 39 , 46)&quot;&gt;Length&lt;/span&gt;&lt;span style=&quot;color: rgb(173 , 186 , 199) ; font-family: , , &amp;#34;sf mono&amp;#34; , &amp;#34;menlo&amp;#34; , &amp;#34;consolas&amp;#34; , &amp;#34;liberation mono&amp;#34; , monospace ; background-color: rgb(34 , 39 , 46)&quot;&gt; &lt;/span&gt;&lt;span class=&quot;pl-k&quot; style=&quot;box-sizing: border-box ; font-family: , , &amp;#34;sf mono&amp;#34; , &amp;#34;menlo&amp;#34; , &amp;#34;consolas&amp;#34; , &amp;#34;liberation mono&amp;#34; , monospace ; background-color: rgb(34 , 39 , 46)&quot;&gt;&amp;lt;=&lt;/span&gt;&lt;span style=&quot;color: rgb(173 , 186 , 199) ; font-family: , , &amp;#34;sf mono&amp;#34; , &amp;#34;menlo&amp;#34; , &amp;#34;consolas&amp;#34; , &amp;#34;liberation mono&amp;#34; , monospace ; background-color: rgb(34 , 39 , 46)&quot;&gt; &lt;/span&gt;&lt;span class=&quot;pl-c1&quot; style=&quot;box-sizing: border-box ; font-family: , , &amp;#34;sf mono&amp;#34; , &amp;#34;menlo&amp;#34; , &amp;#34;consolas&amp;#34; , &amp;#34;liberation mono&amp;#34; , monospace ; background-color: rgb(34 , 39 , 46)&quot;&gt;3&lt;/span&gt;" style="rhombus;whiteSpace=wrap;html=1;" vertex="1" parent="1">
                    <mxGeometry x="292.5" y="317.5" width="115" height="110" as="geometry"/>
                </mxCell>
                <mxCell id="8" value="" style="endArrow=classic;html=1;" edge="1" parent="1">
                    <mxGeometry width="50" height="50" relative="1" as="geometry">
                        <mxPoint x="405" y="374.5" as="sourcePoint"/>
                        <mxPoint x="561" y="375" as="targetPoint"/>
                    </mxGeometry>
                </mxCell>
                <mxCell id="10" value="" style="endArrow=classic;html=1;exitX=0.5;exitY=1;exitDx=0;exitDy=0;entryX=0;entryY=0.5;entryDx=0;entryDy=0;" edge="1" parent="1" source="7" target="5">
                    <mxGeometry width="50" height="50" relative="1" as="geometry">
                        <mxPoint x="390" y="370" as="sourcePoint"/>
                        <mxPoint x="200" y="180" as="targetPoint"/>
                        <Array as="points">
                            <mxPoint x="350" y="510"/>
                            <mxPoint x="200" y="510"/>
                            <mxPoint x="200" y="195"/>
                        </Array>
                    </mxGeometry>
                </mxCell>
                <mxCell id="11" value="NO" style="text;html=1;align=center;verticalAlign=middle;resizable=0;points=[];autosize=1;strokeColor=none;fillColor=none;" vertex="1" parent="1">
                    <mxGeometry x="265" y="490" width="30" height="20" as="geometry"/>
                </mxCell>
                <mxCell id="12" value="YES" style="text;html=1;align=center;verticalAlign=middle;resizable=0;points=[];autosize=1;strokeColor=none;fillColor=none;" vertex="1" parent="1">
                    <mxGeometry x="450" y="350" width="40" height="20" as="geometry"/>
                </mxCell>
                <mxCell id="15" style="edgeStyle=none;html=1;exitX=0.5;exitY=1;exitDx=0;exitDy=0;" edge="1" parent="1" source="13" target="3">
                    <mxGeometry relative="1" as="geometry"/>
                </mxCell>
                <mxCell id="13" value="Print WordArray &amp;lt;=3" style="rounded=0;whiteSpace=wrap;html=1;" vertex="1" parent="1">
                    <mxGeometry x="540" y="340" width="160" height="65" as="geometry"/>
                </mxCell>
            </root>
        </mxGraphModel>
    </diagram>
</mxfile>